<svg
  viewBox="0 0 220 220"
  fill="none"
  xmlns="http://www.w3.org/2000/svg"
  preserveAspectRatio="xMidYMid meet"
  height="100%"
  width="100%"
>
  <circle cx="110" cy="110" r="100" fill="url(#paint0_linear_28847_488)"></circle>
  <path
    d="M146.142 59.3057C178.499 85.0129 186.819 129.828 164.723 159.403C161.034 164.341 156.731 168.542 151.97 171.994C150.761 172.871 149.522 173.7 148.256 174.481C124.66 189.027 91.7098 186.732 66.1266 166.407C47.0778 151.273 36.3598 129.517 35.2733 108.147C34.5142 93.2163 38.4569 78.4735 47.545 66.309C52.1594 60.1326 57.7354 55.1093 63.9648 51.261C64.3708 51.0101 64.7796 50.7643 65.1911 50.5234C66.4692 49.7754 67.7732 49.0757 69.1006 48.4243C80.3317 42.9127 93.2378 40.8656 106.271 42.3929C120.027 44.005 133.924 49.5994 146.142 59.3057Z"
    fill="url(#paint1_linear_28847_488)"
  ></path>
  <path
    d="M111.083 183.733C124.374 184.346 137.321 181.222 148.258 174.479L154.858 170.52C161.563 166.587 167.552 161.326 172.455 154.763C194.551 125.188 186.231 80.3723 153.874 54.6651C141.656 44.9588 127.759 39.3643 114.003 37.7522C98.9334 35.9863 84.0333 38.9991 71.6962 46.6208L65.2711 50.4756C66.5236 49.7451 67.8009 49.0609 69.1006 48.423C80.3317 42.9115 93.2379 40.8644 106.271 42.3916C120.027 44.0037 133.924 49.5982 146.142 59.3044C178.499 85.0117 186.819 129.827 164.723 159.402C161.034 164.34 156.731 168.54 151.97 171.993C150.761 172.87 149.522 173.699 148.256 174.479C137.32 181.221 124.374 184.346 111.083 183.733Z"
    fill="url(#paint2_linear_28847_488)"
  ></path>
  <path
    d="M96.2457 119.307L82.5431 104.432C78.2515 99.7393 71.884 98.1575 66.7356 100.045C66.104 100.277 65.4908 100.561 64.9021 100.897C64.7587 100.979 64.6167 101.064 64.4763 101.153C63.9115 101.508 63.3715 101.914 62.862 102.371L60.2729 104.691L96.3726 143.962L145.985 99.9613L143.528 97.2282C139.213 92.3961 132.751 90.7555 127.534 92.6729C126.856 92.9223 126.198 93.2319 125.569 93.6026C124.916 93.987 124.295 94.437 123.712 94.9535L96.2457 119.307Z"
    fill="url(#paint3_linear_28847_488)"
  ></path>
  <path
    d="M145.985 99.9611L96.3726 143.961L100.383 142.723L149.995 98.7227L145.985 99.9611Z"
    fill="url(#paint4_linear_28847_488)"
  ></path>
  <path
    d="M131.545 91.4346L128.783 92.2874C133.752 91.0327 139.551 92.7753 143.528 97.2284L145.985 99.9615L149.995 98.7231L147.538 95.9899C143.223 91.1578 136.762 89.5173 131.545 91.4346Z"
    fill="url(#paint5_linear_28847_488)"
  ></path>
  <path
    d="M99.0811 116.791L86.5537 103.192C82.262 98.4991 75.8945 96.9173 70.7461 98.805L67.9639 99.6642C72.8669 98.4222 78.587 100.104 82.5431 104.43L96.2456 119.305L99.0811 116.791Z"
    fill="url(#paint6_linear_28847_488)"
  ></path>
  <defs>
    <linearGradient
      id="paint0_linear_28847_488"
      x1="110"
      y1="210.031"
      x2="110"
      y2="5.53125"
      gradientUnits="userSpaceOnUse"
    >
      <stop stop-color="#3F4757"></stop>
      <stop offset="1" stop-color="#3F4757" stop-opacity="0.35"></stop>
    </linearGradient>
    <linearGradient
      id="paint1_linear_28847_488"
      x1="56.1387"
      y1="29.7905"
      x2="247.911"
      y2="163.351"
      gradientUnits="userSpaceOnUse"
    >
      <stop stop-color="#3F4757"></stop>
      <stop offset="0.627327" stop-color="#7C8AA4"></stop>
    </linearGradient>
    <linearGradient
      id="paint2_linear_28847_488"
      x1="98.4227"
      y1="2.83624"
      x2="216.217"
      y2="185.435"
      gradientUnits="userSpaceOnUse"
    >
      <stop offset="0.076178" stop-color="#7C8AA4"></stop>
      <stop offset="0.671247" stop-color="#3F4757"></stop>
      <stop offset="1" stop-color="#7C8AA4"></stop>
    </linearGradient>
    <linearGradient
      id="paint3_linear_28847_488"
      x1="203.035"
      y1="194.933"
      x2="97.5184"
      y2="82.8703"
      gradientUnits="userSpaceOnUse"
    >
      <stop stop-color="white"></stop>
      <stop offset="1" stop-color="#428BF9"></stop>
    </linearGradient>
    <linearGradient
      id="paint4_linear_28847_488"
      x1="123.184"
      y1="71.26"
      x2="109.142"
      y2="146.59"
      gradientUnits="userSpaceOnUse"
    >
      <stop stop-color="#0336FE"></stop>
      <stop offset="1" stop-color="#428BF9"></stop>
    </linearGradient>
    <linearGradient
      id="paint5_linear_28847_488"
      x1="135.606"
      y1="91.9138"
      x2="135.731"
      y2="101.042"
      gradientUnits="userSpaceOnUse"
    >
      <stop stop-color="#0336FE"></stop>
      <stop offset="1" stop-color="#428BF9"></stop>
    </linearGradient>
    <linearGradient
      id="paint6_linear_28847_488"
      x1="77.9724"
      y1="100.911"
      x2="78.418"
      y2="121.769"
      gradientUnits="userSpaceOnUse"
    >
      <stop stop-color="#0336FE"></stop>
      <stop offset="1" stop-color="#428BF9"></stop>
    </linearGradient>
  </defs>
</svg>
