<svg
  viewBox="0 0 94 34"
  fill="none"
  xmlns="http://www.w3.org/2000/svg"
  preserveAspectRatio="xMidYMid meet"
  height="100%"
  width="100%"
>
  <path
    d="M0 2.99976H29V17.5847C29 21.3236 27.0054 24.7786 23.7676 26.6483L14.5 31.9998L5.23246 26.6483C1.99458 24.7786 3.32377e-06 21.3236 3.32377e-06 17.5847L0 2.99976Z"
    fill="#FFDD2D"
  ></path>
  <path
    fill-rule="evenodd"
    clip-rule="evenodd"
    d="M8 10.9998V15.5583C8.61641 14.8543 9.73715 14.3779 11.0186 14.3779H12.4111V19.6771C12.4111 21.087 12.0323 22.321 11.4703 22.9998H17.5276C16.9667 22.3203 16.5888 21.0879 16.5888 19.6798V14.3779H17.9814C19.2628 14.3779 20.3836 14.8543 21 15.5583V10.9998C21 10.9998 8 10.9998 8 10.9998Z"
    fill="#333333"
  ></path>
  <path
    d="M36 22.9979V10.9998H48V13.7429H39.5743V15.4582H43.7391C46.6893 15.4582 48.881 16.144 48.881 19.229C48.881 22.314 46.6893 22.9997 43.7391 22.9997H36V22.9979ZM39.5743 18.1994V20.2567H43.7559C44.9704 20.2567 45.2562 20.0173 45.2562 19.229C45.2562 18.4406 44.9704 18.2013 43.7559 18.2013H39.5743V18.1994Z"
    fill="white"
  ></path>
  <path
    d="M68.5743 18.5413V22.9978H65V10.9998H68.5743V15.3708H74.4244V10.9998H77.9987V22.9978H74.4244V18.5413H68.5743Z"
    fill="white"
  ></path>
  <path
    d="M83.8507 18.4729V22.9978H80.2764V10.9998H83.8507V15.4734H85.9919L89.7176 10.9998H93.7628L89.0935 16.6037V16.8259L94 22.9959H89.5662L85.9751 18.471H83.8507V18.4729Z"
    fill="white"
  ></path>
  <path
    d="M59.404 21.2331H53.823L53.1989 22.9978H49.4564L54.1275 10.9998H59.2863L63.9387 22.9978H60.028L59.404 21.2331ZM58.4436 18.49L56.7919 13.7599H56.4874L54.802 18.49H58.4436Z"
    fill="white"
  ></path>
</svg>
